<svg id="Layer_1" data-name="Layer 1" xmlns="http://www.w3.org/2000/svg" viewBox="0 0 130 130"><rect width="130" height="130" fill="none"/><path id="Icon_awesome-user-md" data-name="Icon awesome-user-md" d="M65,64.74A22.19,22.19,0,1,0,42.81,42.55,22.2,22.2,0,0,0,65,64.74ZM44.2,93.85a4.16,4.16,0,1,0,4.16-4.16,4.16,4.16,0,0,0-4.16,4.16ZM81.64,70.39v8.49A13.88,13.88,0,0,1,92.73,92.47v7.22a2.77,2.77,0,0,1-2.23,2.72l-5.58,1.11a1.38,1.38,0,0,1-1.63-1.07v0l-.54-2.72a1.37,1.37,0,0,1,1.06-1.62h0l3.35-.67v-5c0-10.88-16.64-11.28-16.64.33v4.63l3.34.67A1.41,1.41,0,0,1,75,99.72l-.53,2.72a1.42,1.42,0,0,1-1.63,1.1l-5.41-.73A2.76,2.76,0,0,1,65,100.05V92.47A13.89,13.89,0,0,1,76.11,78.88V71c-.38.13-.76.19-1.14.33a30,30,0,0,1-19.91,0,19.45,19.45,0,0,0-3.91-.9V84.62a9.71,9.71,0,1,1-5.55,0V70.68a23.23,23.23,0,0,0-19.42,22.9v7.76a7.77,7.77,0,0,0,7.76,7.77H96.06a7.77,7.77,0,0,0,7.76-7.77V93.58A23.24,23.24,0,0,0,81.64,70.39Z" fill="#6ccbc1"/></svg>